<svg width="512" height="512" viewBox="0 0 512 512" fill="none" xmlns="http://www.w3.org/2000/svg">
<rect width="512" height="512" fill="black"/>
<path fill-rule="evenodd" clip-rule="evenodd" d="M256 255.66L156 155.33L56 55H156H256V155.33V255.66ZM156 155.33L156 55L256 155.33H156Z" fill="white"/>
<path fill-rule="evenodd" clip-rule="evenodd" d="M356 255.66C300.771 255.66 256 210.741 256 155.33C256 99.9193 300.771 55 356 55C411.228 55 456 99.9193 456 155.33C456 210.741 411.228 255.66 356 255.66ZM306 155.33C306 183.035 328.386 205.495 356 205.495C383.614 205.495 406 183.035 406 155.33C406 127.625 383.614 105.165 356 105.165C328.386 105.165 306 127.625 306 155.33Z" fill="white"/>
<path fill-rule="evenodd" clip-rule="evenodd" d="M256 355.99C256 375.833 261.865 395.231 272.853 411.73C283.841 428.23 299.459 441.089 317.732 448.683C336.004 456.277 356.111 458.263 375.509 454.392C394.907 450.521 412.725 440.965 426.711 426.934C440.696 412.903 450.22 395.026 454.078 375.563C457.937 356.101 455.957 335.928 448.388 317.595C440.819 299.262 428.002 283.593 411.557 272.569C395.112 261.544 375.778 255.66 356 255.66H256H156V155.33L56 155.33L156 255.66H56V456.32H256V355.99ZM256 355.99H356V255.66L256 355.99ZM106 406.155V305.825H206V406.155H106Z" fill="white"/>
</svg>
