<svg width="421" height="421" viewBox="0 0 421 421" fill="none" xmlns="http://www.w3.org/2000/svg">
<path fill-rule="evenodd" clip-rule="evenodd" d="M210.042 210.401L105.021 105.201L0 0H105.021H210.042V105.201V210.401ZM105.021 105.201L105.021 0L210.042 105.201H105.021Z" fill="black"/>
<path fill-rule="evenodd" clip-rule="evenodd" d="M315.063 210.401C257.062 210.401 210.042 163.301 210.042 105.201C210.042 47.0999 257.062 0 315.063 0C373.065 0 420.084 47.0999 420.084 105.201C420.084 163.301 373.065 210.401 315.063 210.401ZM262.553 105.201C262.553 134.251 286.062 157.801 315.063 157.801C344.064 157.801 367.574 134.251 367.574 105.201C367.574 76.1502 344.064 52.6003 315.063 52.6003C286.062 52.6003 262.553 76.1502 262.553 105.201Z" fill="black"/>
<path fill-rule="evenodd" clip-rule="evenodd" d="M210.042 315.602C210.042 336.408 216.201 356.748 227.741 374.048C239.281 391.348 255.683 404.832 274.873 412.794C294.063 420.757 315.18 422.84 335.552 418.781C355.924 414.722 374.637 404.702 389.324 389.99C404.012 375.277 414.014 356.532 418.066 336.125C422.118 315.718 420.039 294.566 412.09 275.343C404.141 256.12 390.68 239.69 373.41 228.131C356.139 216.571 335.834 210.401 315.063 210.401H210.042H105.021V105.201L0 105.201L105.021 210.401H0V420.802H210.042V315.602ZM210.042 315.602H315.063V210.401L210.042 315.602ZM52.5105 368.202V263.001H157.532V368.202H52.5105Z" fill="black"/>
</svg>
